<mxfile host="app.diagrams.net" modified="2021-09-08T18:26:23.255Z" agent="5.0 (Windows NT 10.0; Win64; x64) AppleWebKit/537.36 (KHTML, like Gecko) Chrome/93.0.4577.63 Safari/537.36" etag="-edbHFSqt6n-gwn9iD0U" version="15.0.2" type="github">
  <diagram id="TYL_hx7GoGK296eRrg_1" name="Page-1">
    <mxGraphModel dx="1422" dy="794" grid="1" gridSize="10" guides="1" tooltips="1" connect="1" arrows="1" fold="1" page="1" pageScale="1" pageWidth="1100" pageHeight="850" math="0" shadow="0">
      <root>
        <mxCell id="0" />
        <mxCell id="1" parent="0" />
        <mxCell id="7fUCFxRYZEfUaBJo4nLo-20" style="edgeStyle=orthogonalEdgeStyle;rounded=0;orthogonalLoop=1;jettySize=auto;html=1;exitX=0;exitY=0.5;exitDx=0;exitDy=0;" parent="1" source="7fUCFxRYZEfUaBJo4nLo-1" target="7fUCFxRYZEfUaBJo4nLo-8" edge="1">
          <mxGeometry relative="1" as="geometry" />
        </mxCell>
        <mxCell id="7fUCFxRYZEfUaBJo4nLo-1" value="Minecraft Server" style="shape=image;html=1;verticalAlign=top;verticalLabelPosition=bottom;labelBackgroundColor=#ffffff;imageAspect=0;aspect=fixed;image=https://cdn2.iconfinder.com/data/icons/perqui/48/minecraft.png" parent="1" vertex="1">
          <mxGeometry x="860" y="405.25" width="56" height="56" as="geometry" />
        </mxCell>
        <mxCell id="7fUCFxRYZEfUaBJo4nLo-15" value="" style="edgeStyle=orthogonalEdgeStyle;rounded=0;orthogonalLoop=1;jettySize=auto;html=1;" parent="1" source="7fUCFxRYZEfUaBJo4nLo-2" target="7fUCFxRYZEfUaBJo4nLo-3" edge="1">
          <mxGeometry relative="1" as="geometry" />
        </mxCell>
        <mxCell id="7fUCFxRYZEfUaBJo4nLo-2" value="Public DNS" style="verticalLabelPosition=bottom;aspect=fixed;html=1;verticalAlign=top;strokeColor=none;align=center;outlineConnect=0;shape=mxgraph.citrix.dns_server;" parent="1" vertex="1">
          <mxGeometry x="350" y="140" width="50.04" height="60.5" as="geometry" />
        </mxCell>
        <mxCell id="7fUCFxRYZEfUaBJo4nLo-16" style="edgeStyle=orthogonalEdgeStyle;rounded=0;orthogonalLoop=1;jettySize=auto;html=1;exitX=1;exitY=0.5;exitDx=0;exitDy=0;exitPerimeter=0;" parent="1" source="7fUCFxRYZEfUaBJo4nLo-3" target="7fUCFxRYZEfUaBJo4nLo-4" edge="1">
          <mxGeometry relative="1" as="geometry" />
        </mxCell>
        <mxCell id="7fUCFxRYZEfUaBJo4nLo-3" value="Route 53&lt;br&gt;Authoritative DNS" style="points=[[0,0,0],[0.25,0,0],[0.5,0,0],[0.75,0,0],[1,0,0],[0,1,0],[0.25,1,0],[0.5,1,0],[0.75,1,0],[1,1,0],[0,0.25,0],[0,0.5,0],[0,0.75,0],[1,0.25,0],[1,0.5,0],[1,0.75,0]];outlineConnect=0;fontColor=#232F3E;gradientColor=#945DF2;gradientDirection=north;fillColor=#5A30B5;strokeColor=#ffffff;dashed=0;verticalLabelPosition=bottom;verticalAlign=top;align=center;html=1;fontSize=12;fontStyle=0;aspect=fixed;shape=mxgraph.aws4.resourceIcon;resIcon=mxgraph.aws4.route_53;" parent="1" vertex="1">
          <mxGeometry x="460" y="142.25" width="55.5" height="55.5" as="geometry" />
        </mxCell>
        <mxCell id="7fUCFxRYZEfUaBJo4nLo-17" style="edgeStyle=orthogonalEdgeStyle;rounded=0;orthogonalLoop=1;jettySize=auto;html=1;exitX=1;exitY=0.5;exitDx=0;exitDy=0;exitPerimeter=0;" parent="1" source="7fUCFxRYZEfUaBJo4nLo-4" target="7fUCFxRYZEfUaBJo4nLo-5" edge="1">
          <mxGeometry relative="1" as="geometry" />
        </mxCell>
        <mxCell id="7fUCFxRYZEfUaBJo4nLo-4" value="Cloudwatch&lt;br&gt;Query Log" style="points=[[0,0,0],[0.25,0,0],[0.5,0,0],[0.75,0,0],[1,0,0],[0,1,0],[0.25,1,0],[0.5,1,0],[0.75,1,0],[1,1,0],[0,0.25,0],[0,0.5,0],[0,0.75,0],[1,0.25,0],[1,0.5,0],[1,0.75,0]];points=[[0,0,0],[0.25,0,0],[0.5,0,0],[0.75,0,0],[1,0,0],[0,1,0],[0.25,1,0],[0.5,1,0],[0.75,1,0],[1,1,0],[0,0.25,0],[0,0.5,0],[0,0.75,0],[1,0.25,0],[1,0.5,0],[1,0.75,0]];outlineConnect=0;fontColor=#232F3E;gradientColor=#F34482;gradientDirection=north;fillColor=#BC1356;strokeColor=#ffffff;dashed=0;verticalLabelPosition=bottom;verticalAlign=top;align=center;html=1;fontSize=12;fontStyle=0;aspect=fixed;shape=mxgraph.aws4.resourceIcon;resIcon=mxgraph.aws4.cloudwatch_2;" parent="1" vertex="1">
          <mxGeometry x="590" y="141.75" width="55" height="55" as="geometry" />
        </mxCell>
        <mxCell id="7fUCFxRYZEfUaBJo4nLo-18" style="edgeStyle=orthogonalEdgeStyle;rounded=0;orthogonalLoop=1;jettySize=auto;html=1;exitX=1;exitY=0.5;exitDx=0;exitDy=0;exitPerimeter=0;" parent="1" source="7fUCFxRYZEfUaBJo4nLo-5" target="7fUCFxRYZEfUaBJo4nLo-7" edge="1">
          <mxGeometry relative="1" as="geometry" />
        </mxCell>
        <mxCell id="7fUCFxRYZEfUaBJo4nLo-5" value="Lambda" style="points=[[0,0,0],[0.25,0,0],[0.5,0,0],[0.75,0,0],[1,0,0],[0,1,0],[0.25,1,0],[0.5,1,0],[0.75,1,0],[1,1,0],[0,0.25,0],[0,0.5,0],[0,0.75,0],[1,0.25,0],[1,0.5,0],[1,0.75,0]];outlineConnect=0;fontColor=#232F3E;gradientColor=#F78E04;gradientDirection=north;fillColor=#D05C17;strokeColor=#ffffff;dashed=0;verticalLabelPosition=bottom;verticalAlign=top;align=center;html=1;fontSize=12;fontStyle=0;aspect=fixed;shape=mxgraph.aws4.resourceIcon;resIcon=mxgraph.aws4.lambda;" parent="1" vertex="1">
          <mxGeometry x="730" y="142.5" width="55" height="55" as="geometry" />
        </mxCell>
        <mxCell id="7fUCFxRYZEfUaBJo4nLo-19" style="edgeStyle=orthogonalEdgeStyle;rounded=0;orthogonalLoop=1;jettySize=auto;html=1;exitX=1;exitY=0.5;exitDx=0;exitDy=0;exitPerimeter=0;" parent="1" source="7fUCFxRYZEfUaBJo4nLo-7" target="7fUCFxRYZEfUaBJo4nLo-9" edge="1">
          <mxGeometry relative="1" as="geometry">
            <Array as="points">
              <mxPoint x="960" y="170.25" />
              <mxPoint x="960" y="296.25" />
            </Array>
          </mxGeometry>
        </mxCell>
        <mxCell id="7fUCFxRYZEfUaBJo4nLo-7" value="ECS Service" style="points=[[0,0,0],[0.25,0,0],[0.5,0,0],[0.75,0,0],[1,0,0],[0,1,0],[0.25,1,0],[0.5,1,0],[0.75,1,0],[1,1,0],[0,0.25,0],[0,0.5,0],[0,0.75,0],[1,0.25,0],[1,0.5,0],[1,0.75,0]];outlineConnect=0;fontColor=#232F3E;gradientColor=#F78E04;gradientDirection=north;fillColor=#D05C17;strokeColor=#ffffff;dashed=0;verticalLabelPosition=bottom;verticalAlign=top;align=center;html=1;fontSize=12;fontStyle=0;aspect=fixed;shape=mxgraph.aws4.resourceIcon;resIcon=mxgraph.aws4.ecs;" parent="1" vertex="1">
          <mxGeometry x="860" y="142.5" width="55" height="55" as="geometry" />
        </mxCell>
        <mxCell id="7fUCFxRYZEfUaBJo4nLo-33" style="edgeStyle=orthogonalEdgeStyle;rounded=0;orthogonalLoop=1;jettySize=auto;html=1;exitX=0;exitY=0.75;exitDx=0;exitDy=0;exitPerimeter=0;entryX=1;entryY=0.75;entryDx=0;entryDy=0;entryPerimeter=0;" parent="1" source="7fUCFxRYZEfUaBJo4nLo-8" target="7fUCFxRYZEfUaBJo4nLo-31" edge="1">
          <mxGeometry relative="1" as="geometry" />
        </mxCell>
        <mxCell id="7fUCFxRYZEfUaBJo4nLo-8" value="EFS Shared&lt;br&gt;Persistent Game Data" style="points=[[0,0,0],[0.25,0,0],[0.5,0,0],[0.75,0,0],[1,0,0],[0,1,0],[0.25,1,0],[0.5,1,0],[0.75,1,0],[1,1,0],[0,0.25,0],[0,0.5,0],[0,0.75,0],[1,0.25,0],[1,0.5,0],[1,0.75,0]];outlineConnect=0;fontColor=#232F3E;gradientColor=#60A337;gradientDirection=north;fillColor=#277116;strokeColor=#ffffff;dashed=0;verticalLabelPosition=bottom;verticalAlign=top;align=center;html=1;fontSize=12;fontStyle=0;aspect=fixed;shape=mxgraph.aws4.resourceIcon;resIcon=mxgraph.aws4.efs_standard;" parent="1" vertex="1">
          <mxGeometry x="730" y="405.25" width="55" height="55" as="geometry" />
        </mxCell>
        <mxCell id="7fUCFxRYZEfUaBJo4nLo-21" style="edgeStyle=orthogonalEdgeStyle;rounded=0;orthogonalLoop=1;jettySize=auto;html=1;" parent="1" source="7fUCFxRYZEfUaBJo4nLo-9" target="7fUCFxRYZEfUaBJo4nLo-1" edge="1">
          <mxGeometry relative="1" as="geometry">
            <Array as="points">
              <mxPoint x="960" y="316.25" />
              <mxPoint x="960" y="386.25" />
              <mxPoint x="888" y="386.25" />
            </Array>
          </mxGeometry>
        </mxCell>
        <mxCell id="7fUCFxRYZEfUaBJo4nLo-22" style="edgeStyle=orthogonalEdgeStyle;rounded=0;orthogonalLoop=1;jettySize=auto;html=1;exitX=0;exitY=0.75;exitDx=0;exitDy=0;exitPerimeter=0;entryX=1;entryY=0.75;entryDx=0;entryDy=0;entryPerimeter=0;" parent="1" source="7fUCFxRYZEfUaBJo4nLo-9" target="7fUCFxRYZEfUaBJo4nLo-13" edge="1">
          <mxGeometry relative="1" as="geometry">
            <Array as="points">
              <mxPoint x="820" y="317.25" />
              <mxPoint x="820" y="317.25" />
            </Array>
          </mxGeometry>
        </mxCell>
        <mxCell id="7fUCFxRYZEfUaBJo4nLo-9" value="Fargate Task" style="points=[[0,0,0],[0.25,0,0],[0.5,0,0],[0.75,0,0],[1,0,0],[0,1,0],[0.25,1,0],[0.5,1,0],[0.75,1,0],[1,1,0],[0,0.25,0],[0,0.5,0],[0,0.75,0],[1,0.25,0],[1,0.5,0],[1,0.75,0]];outlineConnect=0;fontColor=#232F3E;gradientColor=#F78E04;gradientDirection=north;fillColor=#D05C17;strokeColor=#ffffff;dashed=0;verticalLabelPosition=bottom;verticalAlign=top;align=center;html=1;fontSize=12;fontStyle=0;aspect=fixed;shape=mxgraph.aws4.resourceIcon;resIcon=mxgraph.aws4.fargate;" parent="1" vertex="1">
          <mxGeometry x="860" y="276.25" width="55" height="55" as="geometry" />
        </mxCell>
        <mxCell id="7fUCFxRYZEfUaBJo4nLo-14" style="edgeStyle=orthogonalEdgeStyle;rounded=0;orthogonalLoop=1;jettySize=auto;html=1;exitX=1;exitY=0.5;exitDx=0;exitDy=0;" parent="1" source="7fUCFxRYZEfUaBJo4nLo-10" target="7fUCFxRYZEfUaBJo4nLo-2" edge="1">
          <mxGeometry relative="1" as="geometry" />
        </mxCell>
        <mxCell id="7fUCFxRYZEfUaBJo4nLo-30" style="edgeStyle=orthogonalEdgeStyle;rounded=0;orthogonalLoop=1;jettySize=auto;html=1;exitX=0.5;exitY=0;exitDx=0;exitDy=0;entryX=1;entryY=0.5;entryDx=0;entryDy=0;" parent="1" source="7fUCFxRYZEfUaBJo4nLo-10" target="7fUCFxRYZEfUaBJo4nLo-1" edge="1">
          <mxGeometry relative="1" as="geometry">
            <Array as="points">
              <mxPoint x="258" y="123" />
              <mxPoint x="990" y="123" />
              <mxPoint x="990" y="433" />
            </Array>
          </mxGeometry>
        </mxCell>
        <mxCell id="7fUCFxRYZEfUaBJo4nLo-10" value="Minecraft&lt;br&gt;Multiplayer" style="shape=image;html=1;verticalAlign=top;verticalLabelPosition=bottom;labelBackgroundColor=#ffffff;imageAspect=0;aspect=fixed;image=https://cdn2.iconfinder.com/data/icons/popular-games-1/50/minecraft_squircle-128.png" parent="1" vertex="1">
          <mxGeometry x="230" y="142.5" width="55" height="55" as="geometry" />
        </mxCell>
        <mxCell id="7fUCFxRYZEfUaBJo4nLo-23" style="edgeStyle=orthogonalEdgeStyle;rounded=0;orthogonalLoop=1;jettySize=auto;html=1;" parent="1" source="7fUCFxRYZEfUaBJo4nLo-13" target="7fUCFxRYZEfUaBJo4nLo-7" edge="1">
          <mxGeometry relative="1" as="geometry">
            <Array as="points">
              <mxPoint x="810" y="296.25" />
              <mxPoint x="810" y="186.25" />
            </Array>
          </mxGeometry>
        </mxCell>
        <mxCell id="7fUCFxRYZEfUaBJo4nLo-24" style="edgeStyle=orthogonalEdgeStyle;rounded=0;orthogonalLoop=1;jettySize=auto;html=1;exitX=0;exitY=0.25;exitDx=0;exitDy=0;exitPerimeter=0;entryX=1;entryY=0.75;entryDx=0;entryDy=0;entryPerimeter=0;" parent="1" source="7fUCFxRYZEfUaBJo4nLo-13" target="7fUCFxRYZEfUaBJo4nLo-3" edge="1">
          <mxGeometry relative="1" as="geometry">
            <Array as="points">
              <mxPoint x="560" y="290" />
              <mxPoint x="560" y="184" />
            </Array>
          </mxGeometry>
        </mxCell>
        <mxCell id="_WP4gMvAPZqNxSXMoYRk-3" style="edgeStyle=orthogonalEdgeStyle;rounded=0;orthogonalLoop=1;jettySize=auto;html=1;" edge="1" parent="1" source="7fUCFxRYZEfUaBJo4nLo-13" target="_WP4gMvAPZqNxSXMoYRk-1">
          <mxGeometry relative="1" as="geometry" />
        </mxCell>
        <mxCell id="7fUCFxRYZEfUaBJo4nLo-13" value="Watchdog&lt;br&gt;Container" style="points=[[0,0,0],[0.25,0,0],[0.5,0,0],[0.75,0,0],[1,0,0],[0,1,0],[0.25,1,0],[0.5,1,0],[0.75,1,0],[1,1,0],[0,0.25,0],[0,0.5,0],[0,0.75,0],[1,0.25,0],[1,0.5,0],[1,0.75,0]];outlineConnect=0;fontColor=#232F3E;gradientColor=#F78E04;gradientDirection=north;fillColor=#D05C17;strokeColor=#ffffff;dashed=0;verticalLabelPosition=bottom;verticalAlign=top;align=center;html=1;fontSize=12;fontStyle=0;aspect=fixed;shape=mxgraph.aws4.resourceIcon;resIcon=mxgraph.aws4.containers;" parent="1" vertex="1">
          <mxGeometry x="730" y="276.25" width="55" height="55" as="geometry" />
        </mxCell>
        <mxCell id="7fUCFxRYZEfUaBJo4nLo-29" value="" style="edgeStyle=orthogonalEdgeStyle;rounded=0;orthogonalLoop=1;jettySize=auto;html=1;" parent="1" source="7fUCFxRYZEfUaBJo4nLo-25" target="7fUCFxRYZEfUaBJo4nLo-10" edge="1">
          <mxGeometry relative="1" as="geometry">
            <mxPoint x="220" y="304" as="sourcePoint" />
            <Array as="points">
              <mxPoint x="200" y="304" />
              <mxPoint x="200" y="170" />
            </Array>
          </mxGeometry>
        </mxCell>
        <mxCell id="7fUCFxRYZEfUaBJo4nLo-25" value="Server Ready&lt;br&gt;Notification" style="dashed=0;outlineConnect=0;html=1;align=center;labelPosition=center;verticalLabelPosition=bottom;verticalAlign=top;shape=mxgraph.webicons.sms;fillColor=#86D466;gradientColor=#42B418" parent="1" vertex="1">
          <mxGeometry x="230" y="276.25" width="55" height="55" as="geometry" />
        </mxCell>
        <mxCell id="7fUCFxRYZEfUaBJo4nLo-34" style="edgeStyle=orthogonalEdgeStyle;rounded=0;orthogonalLoop=1;jettySize=auto;html=1;exitX=0;exitY=0.75;exitDx=0;exitDy=0;exitPerimeter=0;entryX=1;entryY=0.75;entryDx=0;entryDy=0;entryPerimeter=0;" parent="1" source="7fUCFxRYZEfUaBJo4nLo-31" target="7fUCFxRYZEfUaBJo4nLo-32" edge="1">
          <mxGeometry relative="1" as="geometry" />
        </mxCell>
        <mxCell id="7fUCFxRYZEfUaBJo4nLo-36" style="edgeStyle=orthogonalEdgeStyle;rounded=0;orthogonalLoop=1;jettySize=auto;html=1;exitX=1;exitY=0.25;exitDx=0;exitDy=0;exitPerimeter=0;entryX=0;entryY=0.25;entryDx=0;entryDy=0;entryPerimeter=0;" parent="1" source="7fUCFxRYZEfUaBJo4nLo-31" target="7fUCFxRYZEfUaBJo4nLo-8" edge="1">
          <mxGeometry relative="1" as="geometry" />
        </mxCell>
        <mxCell id="7fUCFxRYZEfUaBJo4nLo-31" value="DataSync" style="points=[[0,0,0],[0.25,0,0],[0.5,0,0],[0.75,0,0],[1,0,0],[0,1,0],[0.25,1,0],[0.5,1,0],[0.75,1,0],[1,1,0],[0,0.25,0],[0,0.5,0],[0,0.75,0],[1,0.25,0],[1,0.5,0],[1,0.75,0]];outlineConnect=0;fontColor=#232F3E;gradientColor=#4AB29A;gradientDirection=north;fillColor=#116D5B;strokeColor=#ffffff;dashed=0;verticalLabelPosition=bottom;verticalAlign=top;align=center;html=1;fontSize=12;fontStyle=0;aspect=fixed;shape=mxgraph.aws4.resourceIcon;resIcon=mxgraph.aws4.datasync;" parent="1" vertex="1">
          <mxGeometry x="590" y="405.25" width="55" height="55" as="geometry" />
        </mxCell>
        <mxCell id="7fUCFxRYZEfUaBJo4nLo-35" style="edgeStyle=orthogonalEdgeStyle;rounded=0;orthogonalLoop=1;jettySize=auto;html=1;exitX=1;exitY=0.25;exitDx=0;exitDy=0;exitPerimeter=0;entryX=0;entryY=0.25;entryDx=0;entryDy=0;entryPerimeter=0;" parent="1" source="7fUCFxRYZEfUaBJo4nLo-32" target="7fUCFxRYZEfUaBJo4nLo-31" edge="1">
          <mxGeometry relative="1" as="geometry" />
        </mxCell>
        <mxCell id="7fUCFxRYZEfUaBJo4nLo-32" value="S3 Bucket&lt;br&gt;Easy User Config&lt;br&gt;File Editing" style="points=[[0,0,0],[0.25,0,0],[0.5,0,0],[0.75,0,0],[1,0,0],[0,1,0],[0.25,1,0],[0.5,1,0],[0.75,1,0],[1,1,0],[0,0.25,0],[0,0.5,0],[0,0.75,0],[1,0.25,0],[1,0.5,0],[1,0.75,0]];outlineConnect=0;fontColor=#232F3E;gradientColor=#60A337;gradientDirection=north;fillColor=#277116;strokeColor=#ffffff;dashed=0;verticalLabelPosition=bottom;verticalAlign=top;align=center;html=1;fontSize=12;fontStyle=0;aspect=fixed;shape=mxgraph.aws4.resourceIcon;resIcon=mxgraph.aws4.s3;" parent="1" vertex="1">
          <mxGeometry x="460" y="405.25" width="55" height="55" as="geometry" />
        </mxCell>
        <mxCell id="_WP4gMvAPZqNxSXMoYRk-4" style="edgeStyle=orthogonalEdgeStyle;rounded=0;orthogonalLoop=1;jettySize=auto;html=1;" edge="1" parent="1" source="_WP4gMvAPZqNxSXMoYRk-1" target="7fUCFxRYZEfUaBJo4nLo-25">
          <mxGeometry relative="1" as="geometry" />
        </mxCell>
        <mxCell id="_WP4gMvAPZqNxSXMoYRk-1" value="Simple Notification Service&lt;br&gt;(or Twilio API)" style="points=[[0,0,0],[0.25,0,0],[0.5,0,0],[0.75,0,0],[1,0,0],[0,1,0],[0.25,1,0],[0.5,1,0],[0.75,1,0],[1,1,0],[0,0.25,0],[0,0.5,0],[0,0.75,0],[1,0.25,0],[1,0.5,0],[1,0.75,0]];outlineConnect=0;fontColor=#232F3E;gradientColor=#FF4F8B;gradientDirection=north;fillColor=#BC1356;strokeColor=#ffffff;dashed=0;verticalLabelPosition=bottom;verticalAlign=top;align=center;html=1;fontSize=12;fontStyle=0;aspect=fixed;shape=mxgraph.aws4.resourceIcon;resIcon=mxgraph.aws4.sns;" vertex="1" parent="1">
          <mxGeometry x="460" y="276.25" width="55" height="55" as="geometry" />
        </mxCell>
      </root>
    </mxGraphModel>
  </diagram>
</mxfile>
